PathFileType	4	(X/Y/Z)	 2.8Hzlow3min.trc
DataRate	CameraRate	NumFrames	NumMarkers	Units	OrigDataRate	OrigDataStartFrame	OrigNumFrames
200	200	10	35	m	200	1	1000
Frame#	Time	C7			LSH			RSH			MAN			RASI			LASI			HIPR			HIPL			RPSI			LPSI			COX			RTHI1			RTHI2			RTHI3			RTHI4			RSHA1			RSHA2			RSHA3			RSHA4			RHEEL			RMET5			RMET1			RTOE			LTHI1			LTHI2			LTHI3			LTHI4			LSHA1			LSHA2			LSHA3			LSHA4			LHEEL			LMET5			LMET1			LTOE			
		X1	Y1	Z1	X2	Y2	Z2	X3	Y3	Z3	X4	Y4	Z4	X5	Y5	Z5	X6	Y6	Z6	X7	Y7	Z7	X8	Y8	Z8	X9	Y9	Z9	X10	Y10	Z10	X11	Y11	Z11	X12	Y12	Z12	X13	Y13	Z13	X14	Y14	Z14	X15	Y15	Z15	X16	Y16	Z16	X17	Y17	Z17	X18	Y18	Z18	X19	Y19	Z19	X20	Y20	Z20	X21	Y21	Z21	X22	Y22	Z22	X23	Y23	Z23	X24	Y24	Z24	X25	Y25	Z25	X26	Y26	Z26	X27	Y27	Z27	X28	Y28	Z28	X29	Y29	Z29	X30	Y30	Z30	X31	Y31	Z31	X32	Y32	Z32	X33	Y33	Z33	X34	Y34	Z34	X35	Y35	Z35	
1	0.0050	-0.299188	1.421950	-0.563783	-0.254407	1.393277	-0.734864	-0.269594	1.403934	-0.390593	-0.185071	1.383144	-0.559120	-0.151737	0.994527	-0.471170	-0.141563	0.999587	-0.647192	-0.219437	1.040854	-0.430413	-0.205035	1.044707	-0.689712	-0.293073	1.026844	-0.505913	-0.288230	1.026716	-0.616137	-0.297727	1.038453	-0.563794	-0.248795	0.827479	-0.390152	-0.238886	0.769233	-0.380155	-0.174558	0.774713	-0.387324	-0.176231	0.835205	-0.398003	-0.283810	0.383799	-0.351845	-0.300530	0.343451	-0.352342	-0.243227	0.326686	-0.363511	-0.231503	0.365376	-0.366614	-0.369422	0.144877	-0.404568	-0.250174	0.037445	-0.351964	-0.214286	0.045121	-0.415877	-0.194126	0.031924	-0.409123	-0.223484	0.790589	-0.737216	-0.210897	0.730235	-0.737780	-0.148316	0.736974	-0.721139	-0.153398	0.796508	-0.719491	-0.305936	0.350914	-0.734384	-0.320031	0.313006	-0.730569	-0.259147	0.297072	-0.732993	-0.252837	0.340577	-0.736738	-0.371390	0.147178	-0.679762	-0.252678	0.035327	-0.722749	-0.222412	0.043101	-0.658905	-0.203971	0.036034	-0.666647	
2	0.0100	-0.299073	1.423509	-0.563680	-0.254089	1.395135	-0.734714	-0.269383	1.405696	-0.390493	-0.184980	1.384854	-0.558972	-0.151853	0.995929	-0.471053	-0.141594	1.000868	-0.647015	-0.219563	1.042448	-0.430181	-0.204816	1.046208	-0.689679	-0.293108	1.028756	-0.505859	-0.288219	1.028487	-0.616109	-0.297760	1.040259	-0.563805	-0.249425	0.829208	-0.390166	-0.239776	0.770840	-0.380169	-0.175424	0.776201	-0.386910	-0.176827	0.836713	-0.397522	-0.283959	0.385104	-0.351301	-0.300533	0.344802	-0.351794	-0.243199	0.328214	-0.363142	-0.231626	0.366936	-0.366386	-0.368834	0.145756	-0.404211	-0.249595	0.038938	-0.351267	-0.213394	0.046824	-0.414739	-0.193294	0.033731	-0.407752	-0.224147	0.791846	-0.736890	-0.211520	0.731496	-0.737621	-0.148828	0.738329	-0.721412	-0.153925	0.797787	-0.719595	-0.305666	0.352221	-0.734775	-0.319752	0.314256	-0.731025	-0.258833	0.298496	-0.733258	-0.252569	0.341937	-0.736982	-0.370848	0.148314	-0.680156	-0.251963	0.036946	-0.724113	-0.221679	0.044246	-0.660154	-0.203230	0.037153	-0.667887	
3	0.0150	-0.298937	1.424725	-0.563567	-0.253739	1.396667	-0.734575	-0.269213	1.407127	-0.390388	-0.184888	1.386245	-0.558838	-0.152021	0.997073	-0.470910	-0.141679	1.001877	-0.646849	-0.219820	1.043733	-0.429844	-0.204622	1.047408	-0.689687	-0.293215	1.030308	-0.505795	-0.288291	1.029927	-0.616030	-0.297847	1.041717	-0.563781	-0.250104	0.830552	-0.390213	-0.240639	0.772063	-0.380244	-0.176264	0.777385	-0.386580	-0.177456	0.837906	-0.397065	-0.283973	0.386206	-0.350842	-0.300482	0.345959	-0.351330	-0.243192	0.329444	-0.362922	-0.231705	0.368172	-0.366310	-0.368731	0.146481	-0.403898	-0.249046	0.040593	-0.350390	-0.212647	0.048561	-0.413627	-0.192515	0.035643	-0.406475	-0.224777	0.792729	-0.736600	-0.212036	0.732384	-0.737442	-0.149277	0.739363	-0.721568	-0.154461	0.798778	-0.719660	-0.305428	0.353377	-0.735084	-0.319510	0.315424	-0.731369	-0.258582	0.299667	-0.733444	-0.252302	0.343094	-0.737207	-0.370500	0.149248	-0.680436	-0.251417	0.038452	-0.725435	-0.220953	0.045328	-0.661504	-0.202540	0.038116	-0.669256	
4	0.0200	-0.298794	1.425867	-0.563452	-0.253389	1.398109	-0.734441	-0.269051	1.408471	-0.390278	-0.184792	1.387553	-0.558703	-0.152202	0.998145	-0.470763	-0.141778	1.002813	-0.646684	-0.220073	1.044947	-0.429531	-0.204473	1.048521	-0.689685	-0.293342	1.031763	-0.505725	-0.288385	1.031279	-0.615946	-0.297949	1.043084	-0.563748	-0.250785	0.831794	-0.390268	-0.241489	0.773199	-0.380337	-0.177093	0.778488	-0.386275	-0.178094	0.839022	-0.396627	-0.283959	0.387269	-0.350416	-0.300431	0.347076	-0.350889	-0.243194	0.330604	-0.362732	-0.231769	0.369327	-0.366254	-0.368707	0.147155	-0.403626	-0.248513	0.042254	-0.349493	-0.211952	0.050263	-0.412524	-0.191773	0.037514	-0.405220	-0.225391	0.793532	-0.736323	-0.212526	0.733196	-0.737262	-0.149710	0.740319	-0.721686	-0.154990	0.799702	-0.719707	-0.305192	0.354497	-0.735361	-0.319284	0.316550	-0.731680	-0.258353	0.300801	-0.733616	-0.252047	0.344201	-0.737412	-0.370203	0.150136	-0.680696	-0.250904	0.039921	-0.726724	-0.220267	0.046376	-0.662827	-0.201881	0.039052	-0.670604	
5	0.0250	-0.298634	1.426763	-0.563336	-0.253022	1.399280	-0.734318	-0.268919	1.409547	-0.390158	-0.184690	1.388601	-0.558571	-0.152425	0.999001	-0.470600	-0.141919	1.003532	-0.646530	-0.220371	1.045921	-0.429210	-0.204394	1.049387	-0.689680	-0.293526	1.032925	-0.505639	-0.288543	1.032362	-0.615832	-0.298096	1.044171	-0.563688	-0.251487	0.832713	-0.390339	-0.242301	0.774035	-0.380474	-0.177886	0.779337	-0.386040	-0.178757	0.839888	-0.396230	-0.283855	0.388173	-0.350066	-0.300356	0.348048	-0.350510	-0.243225	0.331530	-0.362646	-0.231797	0.370222	-0.366289	-0.368999	0.147687	-0.403421	-0.248031	0.043974	-0.348500	-0.211399	0.051911	-0.411443	-0.191119	0.039351	-0.404035	-0.225964	0.794056	-0.736082	-0.212933	0.733735	-0.737071	-0.150093	0.741037	-0.721702	-0.155508	0.800402	-0.719711	-0.304976	0.355492	-0.735560	-0.319101	0.317573	-0.731897	-0.258179	0.301754	-0.733734	-0.251814	0.345143	-0.737581	-0.370056	0.150868	-0.680880	-0.250515	0.041276	-0.727942	-0.219643	0.047347	-0.664145	-0.201293	0.039880	-0.671970	
6	0.0300	-0.298459	1.427469	-0.563221	-0.252652	1.400199	-0.734205	-0.268816	1.410372	-0.390022	-0.184583	1.389421	-0.558447	-0.152685	0.999656	-0.470420	-0.142095	1.004056	-0.646376	-0.220645	1.046702	-0.428961	-0.204425	1.050036	-0.689642	-0.293762	1.033838	-0.505530	-0.288758	1.033198	-0.615704	-0.298277	1.045012	-0.563589	-0.252196	0.833358	-0.390420	-0.243066	0.774626	-0.380649	-0.178648	0.779969	-0.385874	-0.179437	0.840545	-0.395893	-0.283688	0.388959	-0.349788	-0.300269	0.348908	-0.350185	-0.243274	0.332256	-0.362645	-0.231779	0.370911	-0.366368	-0.369506	0.148086	-0.403279	-0.247627	0.045688	-0.347470	-0.210998	0.053452	-0.410397	-0.190585	0.041047	-0.402916	-0.226474	0.794369	-0.735879	-0.213260	0.734080	-0.736877	-0.150425	0.741551	-0.721610	-0.155998	0.800919	-0.719654	-0.304778	0.356378	-0.735680	-0.318960	0.318484	-0.732025	-0.258062	0.302562	-0.733810	-0.251618	0.345946	-0.737694	-0.370049	0.151484	-0.681030	-0.250221	0.042517	-0.729058	-0.219136	0.048215	-0.665369	-0.200805	0.040630	-0.673258	
7	0.0350	-0.298269	1.427944	-0.563113	-0.252276	1.400830	-0.734105	-0.268731	1.410919	-0.389878	-0.184466	1.389976	-0.558316	-0.152989	1.000083	-0.470232	-0.142313	1.004358	-0.646234	-0.220944	1.047235	-0.428739	-0.204561	1.050422	-0.689582	-0.294049	1.034449	-0.505399	-0.289031	1.033748	-0.615557	-0.298507	1.045571	-0.563462	-0.252897	0.833699	-0.390515	-0.243768	0.774944	-0.380848	-0.179352	0.780353	-0.385791	-0.180128	0.840963	-0.395631	-0.283468	0.389572	-0.349591	-0.300182	0.349613	-0.349936	-0.243350	0.332750	-0.362726	-0.231732	0.371354	-0.366505	-0.370226	0.148329	-0.403183	-0.247348	0.047348	-0.346416	-0.210794	0.054825	-0.409395	-0.190232	0.042557	-0.401863	-0.226912	0.794452	-0.735716	-0.213506	0.734202	-0.736678	-0.150699	0.741856	-0.721420	-0.156445	0.801228	-0.719525	-0.304613	0.357120	-0.735717	-0.318872	0.319246	-0.732060	-0.258011	0.303197	-0.733843	-0.251465	0.346566	-0.737753	-0.370189	0.151945	-0.681124	-0.250050	0.043600	-0.730045	-0.218765	0.048956	-0.666469	-0.200438	0.041255	-0.674422	
8	0.0400	-0.298067	1.428206	-0.563016	-0.251891	1.401178	-0.734016	-0.268661	1.411197	-0.389736	-0.184338	1.390268	-0.558178	-0.153331	1.000289	-0.470039	-0.142568	1.004446	-0.646102	-0.221266	1.047517	-0.428544	-0.204789	1.050558	-0.689491	-0.294380	1.034768	-0.505242	-0.289353	1.034016	-0.615398	-0.298777	1.045854	-0.563314	-0.253573	0.833748	-0.390606	-0.244389	0.774999	-0.381050	-0.179986	0.780507	-0.385783	-0.180806	0.841153	-0.395462	-0.283215	0.390003	-0.349473	-0.300105	0.350153	-0.349753	-0.243452	0.333014	-0.362873	-0.231665	0.371556	-0.366688	-0.371132	0.148441	-0.403118	-0.247248	0.048889	-0.345379	-0.210818	0.055971	-0.408445	-0.190106	0.043809	-0.400874	-0.227266	0.794330	-0.735590	-0.213668	0.734124	-0.736477	-0.150916	0.741966	-0.721123	-0.156833	0.801342	-0.719323	-0.304479	0.357688	-0.735672	-0.318838	0.319843	-0.732014	-0.258019	0.303646	-0.733838	-0.251359	0.346996	-0.737760	-0.370467	0.152252	-0.681180	-0.249996	0.044512	-0.730881	-0.218550	0.049555	-0.667403	-0.200216	0.041740	-0.675410	
9	0.0450	-0.297859	1.428266	-0.562935	-0.251492	1.401246	-0.733936	-0.268599	1.411198	-0.389600	-0.184202	1.390304	-0.558033	-0.153715	1.000270	-0.469838	-0.142860	1.004327	-0.645979	-0.221604	1.047550	-0.428375	-0.205091	1.050469	-0.689369	-0.294748	1.034801	-0.505058	-0.289719	1.034003	-0.615224	-0.299086	1.045871	-0.563140	-0.254210	0.833523	-0.390687	-0.244912	0.774804	-0.381233	-0.180531	0.780443	-0.385844	-0.181458	0.841122	-0.395385	-0.282950	0.390232	-0.349413	-0.300039	0.350497	-0.349635	-0.243575	0.333050	-0.363071	-0.231584	0.371527	-0.366894	-0.372196	0.148433	-0.403049	-0.247378	0.050247	-0.344386	-0.211094	0.056827	-0.407562	-0.190245	0.044748	-0.399955	-0.227514	0.794030	-0.735494	-0.213746	0.733873	-0.736268	-0.151068	0.741896	-0.720724	-0.157146	0.801272	-0.719038	-0.304380	0.358071	-0.735563	-0.318850	0.320257	-0.731900	-0.258084	0.303886	-0.733794	-0.251296	0.347220	-0.737710	-0.370872	0.152402	-0.681209	-0.250061	0.045223	-0.731550	-0.218505	0.049985	-0.668140	-0.200147	0.042069	-0.676187	
10	0.0500	-0.297650	1.428111	-0.562864	-0.251076	1.401037	-0.733865	-0.268538	1.410929	-0.389474	-0.184058	1.390083	-0.557881	-0.154130	1.000032	-0.469634	-0.143185	1.004000	-0.645860	-0.221990	1.047323	-0.428192	-0.205447	1.050144	-0.689231	-0.295144	1.034551	-0.504861	-0.290120	1.033709	-0.615037	-0.299429	1.045620	-0.562947	-0.254789	0.833056	-0.390754	-0.245328	0.774374	-0.381376	-0.180978	0.780177	-0.385966	-0.182062	0.840877	-0.395398	-0.282685	0.390247	-0.349404	-0.299991	0.350622	-0.349580	-0.243706	0.332851	-0.363307	-0.231503	0.371272	-0.367127	-0.373387	0.148316	-0.402956	-0.247775	0.051376	-0.343459	-0.211649	0.057357	-0.406764	-0.190679	0.045356	-0.399116	-0.227653	0.793574	-0.735414	-0.213733	0.733467	-0.736046	-0.151149	0.741649	-0.720234	-0.157375	0.801025	-0.718665	-0.304311	0.358255	-0.735397	-0.318900	0.320479	-0.731733	-0.258195	0.303907	-0.733707	-0.251263	0.347222	-0.737613	-0.371397	0.152392	-0.681207	-0.250245	0.045720	-0.732045	-0.218626	0.050232	-0.668673	-0.200235	0.042210	-0.676737	
